<svg version="1.1" xmlns="http://www.w3.org/2000/svg" xmlns:xlink="http://www.w3.org/1999/xlink" width="82.75" height="87.5" viewBox="0,0,82.75,87.5"><g transform="translate(-278.5,-136.25)"><g data-paper-data="{&quot;isPaintingLayer&quot;:true}" fill-rule="nonzero" stroke-linejoin="miter" stroke-miterlimit="10" stroke-dasharray="" stroke-dashoffset="0" style="mix-blend-mode: normal"><text transform="translate(278.75,158.75) scale(0.5,0.5)" font-size="40" xml:space="preserve" fill="#ffffff" fill-rule="nonzero" stroke="none" stroke-width="1" stroke-linecap="butt" stroke-linejoin="miter" stroke-miterlimit="10" stroke-dasharray="" stroke-dashoffset="0" font-family="&quot;JetBrainsMono-Bold&quot;, Pixel" font-weight="normal" text-anchor="start" style="mix-blend-mode: normal"><tspan x="0" dy="0"> </tspan></text><path d="M282.25,223.75v-43h32v43z" fill="#b88767" stroke="none" stroke-width="2" stroke-linecap="butt"/><path d="M320.75,179.25v-43h40.5v43z" fill="#b88767" stroke="none" stroke-width="2" stroke-linecap="butt"/><path d="M279.25,176.75v-38h36v38z" fill="#f6dfc0" stroke="none" stroke-width="0" stroke-linecap="butt"/><path d="M321.25,221.75v-38h36v38z" fill="#f6dfc0" stroke="none" stroke-width="0" stroke-linecap="butt"/><g fill="none" stroke="#ffffff" stroke-width="7" stroke-linecap="round"><path d="M313.76786,170.16102c-1.10383,-0.55192 -0.06126,-2.11649 -1,-3c-0.93874,-0.88351 -2.67712,-1.86911 -4.66667,-2.33334c-1.98955,-0.46423 -3.31823,-0.55589 -5.33333,0c-2.0151,0.55589 -3.26758,0.974 -4.33333,2.66667c-1.06576,1.69268 -1.70342,3.81679 -1.33334,6.33333c0.37008,2.51654 1.17147,3.58704 3,5c1.82853,1.41296 2.63635,0.16386 4.33334,0.66667c1.69698,0.50281 3.04467,0.8586 4.66666,2c1.62199,1.1414 3.3895,2.13103 4.33334,4.33333c0.94384,2.20229 0.19996,3.0668 -0.33334,5c-0.5333,1.9332 -0.67571,3.47319 -2.33333,4.66667c-1.65762,1.19349 -3.57761,1.40062 -6,1.33333c-2.42239,-0.06729 -3.95429,-0.3325 -6,-1.66666c-2.04571,-1.33416 -2.5931,-2.10773 -1.66667,-3.33334"/><path d="M342.43452,163.16102l0.65495,6.04296c0,0 0.53683,4.64679 0.02228,7.16364c-0.90923,4.44738 -1.38333,9.32675 -1.67723,14.7934c-0.22987,4.27548 -0.46643,2.79156 -0.40683,2.7377c0.0974,-0.08802 0.42886,-0.81161 -1.25984,0.59564c-2.72208,2.26841 -2.48569,1.35872 -4.33333,1.66666c-1.84764,0.30794 -3.5222,0.55597 -5.66667,0c-2.14447,-0.55597 -2.25807,-1.12366 -3.33333,-2.33334c-1.07527,-1.20968 -2.57015,-2.13213 -2,-3.66666"/></g></g></g></svg>