<svg version="1.1" xmlns="http://www.w3.org/2000/svg" xmlns:xlink="http://www.w3.org/1999/xlink" width="28.5" height="31.5" viewBox="0,0,28.5,31.5"><g transform="translate(-234.25,-173.05)"><g data-paper-data="{&quot;isPaintingLayer&quot;:true}" fill-rule="evenodd" stroke-miterlimit="4" stroke-dasharray="" stroke-dashoffset="0" style="mix-blend-mode: normal"><path d="M235,200.8h27v3h-27z" fill="#000000" stroke="#000000" stroke-width="1.5" stroke-linecap="butt" stroke-linejoin="round"/><path d="M238.5,196.8l1.5,-2.5h17l1.5,2.5z" fill="#000000" stroke="#000000" stroke-width="1.5" stroke-linecap="butt" stroke-linejoin="round"/><path d="M238,200.8v-4h21v4z" fill="#000000" stroke="#000000" stroke-width="1.5" stroke-linecap="butt" stroke-linejoin="round"/><path d="M240,194.3v-13h17v13z" fill="#000000" stroke="#000000" stroke-width="1.5" stroke-linecap="butt" stroke-linejoin="miter"/><path d="M240,181.3l-3,-2.5h23l-3,2.5z" fill="#000000" stroke="#000000" stroke-width="1.5" stroke-linecap="butt" stroke-linejoin="round"/><path d="M237,178.8v-5h4v2h5v-2h5v2h5v-2h4v5z" fill="#000000" stroke="#000000" stroke-width="1.5" stroke-linecap="butt" stroke-linejoin="round"/><path d="M238,200.3h21v0" fill="none" stroke="#ffffff" stroke-width="1" stroke-linecap="round" stroke-linejoin="miter"/><path d="M239,196.3h19" fill="none" stroke="#ffffff" stroke-width="1" stroke-linecap="round" stroke-linejoin="miter"/><path d="M257,194.3h-17" fill="none" stroke="#ffffff" stroke-width="1" stroke-linecap="round" stroke-linejoin="miter"/><path d="M257,181.3h-17" fill="none" stroke="#ffffff" stroke-width="1" stroke-linecap="round" stroke-linejoin="miter"/><path d="M237,178.8h23" fill="none" stroke="#ffffff" stroke-width="1" stroke-linecap="round" stroke-linejoin="miter"/></g></g></svg>