<svg version="1.1" xmlns="http://www.w3.org/2000/svg" xmlns:xlink="http://www.w3.org/1999/xlink" width="33.52896" height="33.5" viewBox="0,0,33.52896,33.5"><g transform="translate(-228.73552,-170.05)"><g data-paper-data="{&quot;isPaintingLayer&quot;:true}" fill-rule="evenodd" stroke="#000000" stroke-width="1.5" stroke-linecap="round" stroke-linejoin="round" stroke-miterlimit="4" stroke-dasharray="" stroke-dashoffset="0" style="mix-blend-mode: normal"><path d="M245.48552,173.8c10.5,1 16.5,8 16,29h-23c0,-9 10,-6.5 8,-21" fill="#ffffff"/><path d="M247.48552,181.8c0.38,2.91 -5.55,7.37 -8,9c-3,2 -2.82,4.34 -5,4c-1.042,-0.94 1.41,-3.04 0,-3c-1,0 0.19,1.23 -1,2c-1,0 -4.003,1 -4,-4c0,-2 6,-12 6,-12c0,0 1.89,-1.9 2,-3.5c-0.73,-0.994 -0.5,-2 -0.5,-3c1,-1 3,2.5 3,2.5h2c0,0 0.78,-1.992 2.5,-3c1,0 1,3 1,3" fill="#ffffff"/><path d="M232.98552,189.3c0,0.27614 -0.22386,0.5 -0.5,0.5c-0.27614,0 -0.5,-0.22386 -0.5,-0.5c0,-0.27614 0.22386,-0.5 0.5,-0.5c0.27614,0 0.5,0.22386 0.5,0.5z" fill="#000000"/><path d="M238.41852,179.55c-0.41421,0.71742 -0.94386,1.18707 -1.183,1.049c-0.23914,-0.13807 -0.09721,-0.83158 0.317,-1.549c0.41421,-0.71742 0.94386,-1.18707 1.183,-1.049c0.23914,0.13807 0.09721,0.83158 -0.317,1.549z" fill="#000000"/></g></g></svg>