<svg version="1.1" xmlns="http://www.w3.org/2000/svg" xmlns:xlink="http://www.w3.org/1999/xlink" width="34.72449" height="35.125" viewBox="0,0,34.72449,35.125"><g transform="translate(-229.77551,-167.6875)"><g data-paper-data="{&quot;isPaintingLayer&quot;:true}" fill-rule="evenodd" stroke="#000000" stroke-width="1.5" stroke-miterlimit="10" stroke-dasharray="" stroke-dashoffset="0" style="mix-blend-mode: normal"><path d="M247.13776,174.0675v-5.63M244.63776,170.4375h5" fill="none" stroke-linecap="round" stroke-linejoin="miter"/><path d="M247.13776,187.4375c0,0 -4.5,-7.5 -3,-10.5c0,0 1,-2.5 3,-2.5c2,0 3,2.5 3,2.5c1.5,3 -3,10.5 -3,10.5" fill="#ffffff" stroke-linecap="butt" stroke-linejoin="miter"/><path d="M237.13776,199.4375v-7c0,0 -9,-4.5 -6,-10.5c4,-6.5 13.5,-3.5 16,4v3.5v-3.5c2.5,-7.5 12,-10.5 16,-4c3,6 -6,10.5 -6,10.5v7c-5.5,3.5 -14.5,3.5 -20,0" fill="#ffffff" stroke-linecap="round" stroke-linejoin="round"/><path d="M237.13776,192.4375c5.5,-3 14.5,-3 20,0M237.13776,195.9375c5.5,-3 14.5,-3 20,0M237.13776,199.4375c5.5,-3 14.5,-3 20,0" fill="none" stroke-linecap="round" stroke-linejoin="round"/></g></g></svg>