<svg version="1.1" xmlns="http://www.w3.org/2000/svg" xmlns:xlink="http://www.w3.org/1999/xlink" width="38.5" height="34.75" viewBox="0,0,38.5,34.75"><g transform="translate(-227.25,-168.125)"><g data-paper-data="{&quot;isPaintingLayer&quot;:true}" fill-rule="nonzero" stroke="#000000" stroke-width="1.5" stroke-linecap="butt" stroke-linejoin="round" stroke-miterlimit="10" stroke-dasharray="" stroke-dashoffset="0" style="mix-blend-mode: normal"><path d="M230.5,176.375l7.5,11.5l0.3,-14.1l5.2,13.6l3,-14.5l3,14.5l5.2,-13.6l0.3,14.1l7.5,-11.5l-2.5,12.5c-6,-1.5 -18.5,-1.5 -27,0z" fill="#ffffff"/><path d="M260,188.875c0,2 -1.5,2 -2.5,4c-1,1.5 -1,1 -0.5,3.5c1.5,1 1,2.5 1,2.5c1.5,1.5 0,2.5 0,2.5c-6.5,1 -16.5,1 -23,0c0,0 -1.5,-1 0,-2.5c0,0 -0.5,-1.5 1,-2.5c0.5,-2.5 0.5,-2 -0.5,-3.5c-1,-2 -2.5,-2 -2.5,-4c8.5,-1.5 18.5,-1.5 27,0z" fill="#ffffff"/><path d="M235.5,192.875c3.5,-1 18.5,-1 22,0" fill="none"/><path d="M236,196.375c6,-1 15,-1 21,0" fill="none"/><path d="M228,174.875c0,-1.10457 0.89543,-2 2,-2c1.10457,0 2,0.89543 2,2c0,1.10457 -0.89543,2 -2,2c-1.10457,0 -2,-0.89543 -2,-2z" fill="#ffffff"/><path d="M236,171.875c0,-1.10457 0.89543,-2 2,-2c1.10457,0 2,0.89543 2,2c0,1.10457 -0.89543,2 -2,2c-1.10457,0 -2,-0.89543 -2,-2z" fill="#ffffff"/><path d="M244.5,170.875c0,-1.10457 0.89543,-2 2,-2c1.10457,0 2,0.89543 2,2c0,1.10457 -0.89543,2 -2,2c-1.10457,0 -2,-0.89543 -2,-2z" fill="#ffffff"/><path d="M253,171.875c0,-1.10457 0.89543,-2 2,-2c1.10457,0 2,0.89543 2,2c0,1.10457 -0.89543,2 -2,2c-1.10457,0 -2,-0.89543 -2,-2z" fill="#ffffff"/><path d="M261,174.875c0,-1.10457 0.89543,-2 2,-2c1.10457,0 2,0.89543 2,2c0,1.10457 -0.89543,2 -2,2c-1.10457,0 -2,-0.89543 -2,-2z" fill="#ffffff"/></g></g></svg>